<svg width="28" height="28" viewBox="0 0 28 28" fill="none" xmlns="http://www.w3.org/2000/svg">
<path d="M9.33203 4.66634V18.6663C9.33203 19.2852 9.57786 19.8787 10.0154 20.3163C10.453 20.7538 11.0465 20.9997 11.6654 20.9997H20.9987C21.6175 20.9997 22.211 20.7538 22.6486 20.3163C23.0862 19.8787 23.332 19.2852 23.332 18.6663V8.44867C23.332 8.13783 23.2698 7.83012 23.1492 7.54363C23.0286 7.25713 22.852 6.99762 22.6297 6.78034L18.7622 2.99801C18.3263 2.57178 17.7409 2.33308 17.1312 2.33301H11.6654C11.0465 2.33301 10.453 2.57884 10.0154 3.01643C9.57786 3.45401 9.33203 4.0475 9.33203 4.66634Z" stroke="white" stroke-width="2" stroke-linecap="round" stroke-linejoin="round"/>
<path d="M18.666 20.9993V23.3327C18.666 23.9515 18.4202 24.545 17.9826 24.9826C17.545 25.4202 16.9515 25.666 16.3327 25.666H6.99935C6.38051 25.666 5.78702 25.4202 5.34943 24.9826C4.91185 24.545 4.66602 23.9515 4.66602 23.3327V10.4993C4.66602 9.88051 4.91185 9.28702 5.34943 8.84943C5.78702 8.41185 6.38051 8.16602 6.99935 8.16602H9.33268" stroke="white" stroke-width="2" stroke-linecap="round" stroke-linejoin="round"/>
</svg>
