<svg width="33" height="32" viewBox="0 0 33 32" fill="none" xmlns="http://www.w3.org/2000/svg">
<path d="M12.1484 20.7188C12.2652 20.7049 12.4255 20.6814 12.6289 20.6475C13.0362 20.5796 13.6139 20.4712 14.3564 20.3242C15.5878 20.0808 16.6905 19.8584 16.8154 19.8262V19.8252C16.8145 19.8255 16.8164 19.8245 16.8223 19.8213C16.8279 19.8182 16.8359 19.8143 16.8457 19.8076C16.8654 19.7943 16.892 19.7746 16.9258 19.7471C16.9933 19.6922 17.0879 19.6087 17.2158 19.4912C17.4717 19.2561 17.8583 18.8854 18.4238 18.332C19.5552 17.2251 21.4012 15.3882 24.3477 12.4434C28.4774 8.31396 30.3858 6.42389 31.2627 5.44141C31.7024 4.9487 31.8749 4.69235 31.9414 4.50195C31.9738 4.40912 31.9821 4.33038 31.9814 4.24316C31.9811 4.1986 31.9781 4.15194 31.9756 4.09961C31.9731 4.04799 31.9707 3.99128 31.9707 3.92773L31.9609 3.63867C31.9419 3.37476 31.889 3.17564 31.7451 2.94141C31.5487 2.62173 31.1833 2.23596 30.498 1.55176C29.5732 0.628371 29.2945 0.388946 29.0137 0.263672H29.0127C28.8053 0.167652 28.5298 0.102719 28.2578 0.078125C27.9849 0.053492 27.7231 0.0702641 27.5439 0.128906H27.543C27.4063 0.178704 27.1865 0.270485 27.0537 0.342773L27.0527 0.34375L27.04 0.352539C27.031 0.359522 27.0189 0.369016 27.0039 0.381836C26.9739 0.407559 26.9331 0.444124 26.8818 0.491211C26.7794 0.585356 26.636 0.720885 26.4541 0.895508C26.0904 1.24467 25.5734 1.7501 24.9199 2.39355C23.6129 3.68051 21.7617 5.521 19.5078 7.77441L12.2109 15.0713L11.7266 17.4922C11.5164 18.5568 11.3995 19.172 11.3418 19.5459C11.2838 19.9213 11.288 20.0426 11.3115 20.127C11.3478 20.2464 11.4445 20.3843 11.5674 20.501C11.6895 20.6168 11.8281 20.7042 11.9434 20.7324L11.9443 20.7314C11.9513 20.7328 11.9703 20.7343 12.0068 20.7324C12.0423 20.7306 12.0899 20.7257 12.1484 20.7188ZM28.9502 5.32031L27.834 4.20605L26.7236 3.09766L26.6768 3.05078L26.7246 3.00391L27.3262 2.40918V2.4082C27.4962 2.24157 27.6609 2.09207 27.792 1.9834C27.8574 1.92916 27.9159 1.88415 27.9629 1.85254C27.9862 1.83685 28.0079 1.82312 28.0273 1.81348C28.0441 1.80517 28.0686 1.795 28.0938 1.79492C28.1117 1.79492 28.1281 1.80061 28.1377 1.80469C28.1488 1.80938 28.1604 1.81542 28.1719 1.82227C28.1951 1.83615 28.2232 1.8559 28.2549 1.87988C28.3186 1.92817 28.4022 1.99833 28.501 2.08594C28.699 2.26163 28.9625 2.51155 29.2578 2.80957L29.2568 2.81055C29.6823 3.23534 29.9329 3.49086 30.0723 3.65625C30.1416 3.73853 30.1873 3.8023 30.2129 3.85645C30.2398 3.91337 30.2467 3.96334 30.2344 4.0127L30.2334 4.01562L30.2061 4.07227C30.1945 4.09137 30.1794 4.11298 30.1621 4.13672C30.1271 4.18481 30.0799 4.24431 30.0244 4.30957C29.9134 4.44018 29.7662 4.59928 29.6084 4.75684L29.0439 5.32031L28.9971 5.36719L28.9502 5.32031ZM13.3965 18.6855C13.3928 18.6849 13.3781 18.6822 13.3643 18.6719L13.3564 18.666L13.3506 18.6582C13.3406 18.6447 13.3376 18.6309 13.3369 18.627C13.3358 18.6209 13.3361 18.6149 13.3359 18.6104C13.3355 18.601 13.3353 18.5893 13.3359 18.5781C13.3373 18.5554 13.3402 18.5248 13.3447 18.4883C13.3539 18.4146 13.3702 18.3117 13.3906 18.1875C13.4315 17.9386 13.4923 17.601 13.5645 17.2344L13.8281 15.9014L13.832 15.8818L13.8457 15.8672L19.5957 10.1211C21.1757 8.54366 22.6162 7.10809 23.6641 6.06738C24.1877 5.54735 24.6132 5.12567 24.9092 4.83398C25.0572 4.68813 25.1736 4.57409 25.2529 4.49707C25.2923 4.45883 25.3226 4.42915 25.3438 4.40918C25.3542 4.39928 25.3629 4.39133 25.3691 4.38574C25.3722 4.38304 25.3761 4.38023 25.3789 4.37793C25.3802 4.37686 25.3823 4.37473 25.3848 4.37305C25.3861 4.37215 25.3892 4.37088 25.3926 4.36914C25.3943 4.3682 25.4064 4.36141 25.4229 4.36133C25.438 4.36133 25.4499 4.36617 25.4521 4.36719C25.4564 4.36911 25.4599 4.37177 25.4619 4.37305C25.466 4.37559 25.4696 4.37854 25.4727 4.38086C25.4792 4.38588 25.4873 4.39276 25.4961 4.40039C25.5138 4.41585 25.5384 4.43785 25.5684 4.46582C25.6285 4.52199 25.7131 4.60274 25.8154 4.70215C26.0203 4.90117 26.2976 5.17597 26.5986 5.47656L27.6963 6.57129L27.7432 6.61914L27.6963 6.66602L21.9346 12.4189L16.1729 18.1709L16.1582 18.1855L16.1377 18.1895L14.7969 18.4521C14.4294 18.5274 14.0898 18.5902 13.8389 18.6318C13.7136 18.6526 13.6096 18.6685 13.5352 18.6777C13.4982 18.6823 13.4672 18.6852 13.4443 18.6865C13.4332 18.6872 13.4224 18.6879 13.4131 18.6875C13.4085 18.6873 13.4026 18.6867 13.3965 18.6855Z" fill="#34495E" stroke="#D5D8DC" stroke-width="0.133333"/>
<path d="M24.125 31.9336L24.5361 31.793C25.5388 31.4429 26.2959 30.7006 26.6904 29.6543V29.6533L26.8301 29.2969L26.8486 21.9717C26.8549 18.3321 26.8578 16.4973 26.8438 15.541C26.8367 15.0626 26.8256 14.8065 26.8086 14.6553C26.8001 14.5803 26.7907 14.5328 26.7803 14.498L26.7432 14.4092C26.6777 14.2815 26.562 14.1649 26.4238 14.0801C26.2855 13.9951 26.1293 13.9453 25.9873 13.9453C25.8454 13.9454 25.6899 13.9953 25.5518 14.0801C25.4136 14.1649 25.2979 14.2815 25.2324 14.4092H25.2314C25.1773 14.5145 25.1456 14.5853 25.1299 15.5215C25.1142 16.452 25.1143 18.2257 25.1143 21.7217C25.1143 25.7071 25.1214 27.5772 25.0664 28.5117C25.039 28.9774 24.9963 29.2216 24.9229 29.3809C24.8857 29.4614 24.8399 29.5201 24.7891 29.5732L24.624 29.7314C24.594 29.7614 24.5687 29.7892 24.5449 29.8164C24.5215 29.8432 24.4985 29.8711 24.4736 29.8965C24.4218 29.9495 24.3627 29.9953 24.2695 30.0332C24.0902 30.106 23.7835 30.1489 23.1465 30.1758C21.8664 30.2298 19.2087 30.2197 13.4482 30.2197C7.68792 30.2197 5.03007 30.2298 3.75 30.1758C3.11306 30.1489 2.80622 30.106 2.62695 30.0332C2.53405 29.9954 2.47551 29.9493 2.42383 29.8965C2.39898 29.8711 2.37501 29.8432 2.35156 29.8164C2.32775 29.7892 2.30245 29.7614 2.27246 29.7314C2.24238 29.7014 2.21389 29.6762 2.18652 29.6523C2.15984 29.6291 2.13272 29.6057 2.10742 29.5811C2.05437 29.5294 2.00863 29.47 1.9707 29.377C1.89773 29.1979 1.8541 28.8919 1.82715 28.2559C1.77299 26.9778 1.7832 24.3244 1.7832 18.5732C1.7832 12.8221 1.773 10.1687 1.82715 8.89062C1.8541 8.25465 1.89776 7.94862 1.9707 7.76953C2.00864 7.67646 2.05436 7.61713 2.10742 7.56543C2.13272 7.5408 2.15984 7.51738 2.18652 7.49414L2.27246 7.41504C2.388 7.29818 2.46275 7.1913 2.62402 7.11719C2.78351 7.04395 3.02793 7.00099 3.49414 6.97363C4.43022 6.91873 6.30349 6.92578 10.2949 6.92578C13.7963 6.92578 15.5729 6.92579 16.5049 6.91016C17.4411 6.89445 17.5129 6.86249 17.6182 6.80859H17.6191C17.7472 6.74319 17.8642 6.62724 17.9492 6.48926C18.0342 6.3512 18.084 6.19539 18.084 6.05371C18.0839 5.91205 18.0342 5.75619 17.9492 5.61816C17.8643 5.48034 17.747 5.3652 17.6191 5.2998H17.6182C17.5128 5.24586 17.4439 5.21318 16.4971 5.19824C16.026 5.19081 15.3403 5.1876 14.3291 5.18652L10.207 5.1875C8.22921 5.19063 6.40188 5.19881 5.05176 5.20898C4.37693 5.21407 3.82118 5.21963 3.42578 5.22559C3.22813 5.22857 3.07023 5.23129 2.95801 5.23438C2.90185 5.23592 2.85669 5.23773 2.82422 5.23926C2.80835 5.24001 2.79567 5.24051 2.78613 5.24121C2.7813 5.24157 2.77724 5.24287 2.77441 5.24316H2.77246C1.5793 5.48878 0.606914 6.34205 0.207031 7.50293L0.0664062 7.91406V29.2354L0.207031 29.6367V29.6377C0.535888 30.5936 1.24864 31.3442 2.17285 31.7227L2.36035 31.793L2.77148 31.9336H24.125Z" fill="#34495E" stroke="#D5D8DC" stroke-width="0.133333"/>
</svg>
