<svg width="45" height="45" viewBox="0 0 45 45" fill="none" xmlns="http://www.w3.org/2000/svg">
<g clip-path="url(#clip0_131_666)">
<path d="M5.80957 0.131836C4.49121 0.421875 3.57715 0.861328 2.61914 1.66992C1.59082 2.52246 0.782227 3.75293 0.37793 5.05371L0.131836 5.84473V22.5V39.1553L0.37793 39.9463C1.08105 42.2227 2.86523 44.0068 5.1416 44.71L5.93262 44.9561H15.9521H25.9717L26.7627 44.71C29.0391 44.0068 30.832 42.2139 31.5264 39.9463C31.7637 39.1553 31.7637 39.1465 31.7725 36.5186C31.7725 33.8906 31.7725 33.8818 31.5615 33.5479C31.4473 33.3633 31.1924 33.1084 30.999 32.9766C30.7002 32.7744 30.542 32.7393 30.0586 32.7393C29.5752 32.7393 29.417 32.7744 29.1182 32.9766C28.9248 33.1084 28.6699 33.3633 28.5557 33.5479C28.3535 33.873 28.3447 33.9521 28.292 36.2988C28.248 38.54 28.2305 38.751 28.0459 39.2256C27.668 40.1924 26.8857 40.9395 25.8926 41.2822C25.4707 41.4316 24.8555 41.4404 15.9082 41.4404H6.37207L5.8623 41.2383C4.88672 40.8428 4.14844 40.0693 3.80566 39.0762C3.65625 38.6543 3.64746 37.793 3.64746 22.5C3.64746 7.20703 3.65625 6.3457 3.80566 5.92383C4.14844 4.93066 4.88672 4.15723 5.8623 3.76172L6.37207 3.55957H15.9082C24.8555 3.55957 25.4707 3.56836 25.8926 3.71777C26.8857 4.06055 27.668 4.80762 28.0459 5.77441C28.2305 6.24902 28.248 6.45996 28.292 8.70996L28.3447 11.1357L28.582 11.4873C28.9424 12.0322 29.373 12.2607 30.0586 12.2607C30.7441 12.2607 31.1748 12.0322 31.5352 11.4873L31.7725 11.127V8.49023C31.7637 5.85352 31.7637 5.84473 31.5264 5.05371C30.832 2.78613 29.0391 0.993164 26.7627 0.290039L25.9717 0.0439453L16.1719 0.0263672C8.05078 0.0175781 6.27539 0.0351562 5.80957 0.131836Z" fill="white"/>
<path d="M37.9248 15.1965C37.1514 15.5569 36.7559 16.3479 36.9316 17.1917C37.0107 17.596 37.1338 17.7366 38.6104 19.2219L40.2012 20.8303L29.3467 20.8479L18.4922 20.8743L18.1318 21.1116C17.5781 21.4719 17.3584 21.9026 17.3584 22.5969C17.3584 23.0716 17.4023 23.2298 17.5957 23.5286C17.7275 23.7219 17.9824 23.9768 18.167 24.0911L18.501 24.302L29.3467 24.3284L40.2012 24.346L38.6104 25.9544C37.1338 27.4397 37.0107 27.5803 36.9316 27.9846C36.6328 29.4085 38.0391 30.5774 39.3311 29.9798C39.5596 29.8743 40.4912 28.9954 42.0205 27.4573C44.1914 25.26 44.376 25.0491 44.6572 24.4339C44.9473 23.7835 44.9561 23.7571 44.9561 22.5882C44.9561 21.4192 44.9473 21.3928 44.6572 20.7424C44.376 20.1272 44.1914 19.9163 42.0205 17.719C40.4912 16.1809 39.5596 15.302 39.3311 15.1965C38.8828 14.9856 38.373 14.9856 37.9248 15.1965Z" fill="white"/>
</g>
<defs>
<clipPath id="clip0_131_666">
<rect width="45" height="45" fill="white"/>
</clipPath>
</defs>
</svg>
