<svg width="83" height="83" viewBox="0 0 83 83" fill="none" xmlns="http://www.w3.org/2000/svg">
<path d="M41.5 5.1875C21.4471 5.1875 5.1875 21.4471 5.1875 41.5C5.1875 61.5529 21.4471 77.8125 41.5 77.8125C61.5529 77.8125 77.8125 61.5529 77.8125 41.5C77.8125 21.4471 61.5529 5.1875 41.5 5.1875ZM41.5 71.6523C24.8514 71.6523 11.3477 58.1486 11.3477 41.5C11.3477 24.8514 24.8514 11.3477 41.5 11.3477C58.1486 11.3477 71.6523 24.8514 71.6523 41.5C71.6523 58.1486 58.1486 71.6523 41.5 71.6523Z" fill="#3498DB"/>
<path d="M50.5457 25.67C48.1141 23.5383 44.9043 22.3711 41.5 22.3711C38.0957 22.3711 34.8859 23.5464 32.4543 25.67C29.9254 27.8828 28.5312 30.8575 28.5312 34.043V34.659C28.5312 35.0156 28.823 35.3074 29.1797 35.3074H33.0703C33.427 35.3074 33.7188 35.0156 33.7188 34.659V34.043C33.7188 30.4685 37.2122 27.5586 41.5 27.5586C45.7878 27.5586 49.2812 30.4685 49.2812 34.043C49.2812 36.5638 47.498 38.8738 44.7341 39.9356C43.0157 40.5922 41.5567 41.7432 40.5111 43.2508C39.4493 44.7908 38.8981 46.6389 38.8981 48.5112V50.2539C38.8981 50.6105 39.1899 50.9023 39.5466 50.9023H43.4372C43.7938 50.9023 44.0856 50.6105 44.0856 50.2539V48.414C44.0898 47.6271 44.331 46.8598 44.7778 46.212C45.2246 45.5643 45.8562 45.0662 46.5902 44.7827C51.3725 42.9428 54.4606 38.7279 54.4606 34.043C54.4688 30.8575 53.0746 27.8828 50.5457 25.67ZM38.2578 59.332C38.2578 60.1919 38.5994 61.0166 39.2074 61.6246C39.8155 62.2326 40.6401 62.5742 41.5 62.5742C42.3599 62.5742 43.1845 62.2326 43.7926 61.6246C44.4006 61.0166 44.7422 60.1919 44.7422 59.332C44.7422 58.4721 44.4006 57.6475 43.7926 57.0395C43.1845 56.4314 42.3599 56.0898 41.5 56.0898C40.6401 56.0898 39.8155 56.4314 39.2074 57.0395C38.5994 57.6475 38.2578 58.4721 38.2578 59.332Z" fill="#3498DB"/>
</svg>
