<svg width="290" height="290" viewBox="0 0 290 290" fill="none" xmlns="http://www.w3.org/2000/svg">
<path d="M228.907 134.27C223.627 92.6795 188.017 60.417 145 60.417C111.699 60.417 82.7712 79.8712 69.5641 110.551C43.6091 118.32 24.167 142.825 24.167 169.167C24.167 201.272 49.4091 227.348 81.0553 229.233V229.584H217.38V229.547L217.5 229.584C244.156 229.584 265.834 207.906 265.834 181.25C265.819 170.418 262.174 159.903 255.48 151.386C248.786 142.87 239.429 136.843 228.907 134.27ZM96.667 145H132.917V108.75H157.084V145H193.334L145 205.417L96.667 145Z" fill="#3498DB"/>
</svg>
