<svg width="38" height="38" viewBox="0 0 38 38" fill="none" xmlns="http://www.w3.org/2000/svg">
<path d="M5.09678 6.7778C4.98638 6.66739 4.8988 6.53631 4.83904 6.39206C4.77929 6.2478 4.74854 6.09319 4.74854 5.93705C4.74854 5.7809 4.77929 5.62629 4.83904 5.48204C4.8988 5.33778 4.98638 5.20671 5.09678 5.0963C5.20719 4.98589 5.33827 4.89831 5.48252 4.83855C5.62678 4.7788 5.78139 4.74805 5.93753 4.74805C6.09368 4.74805 6.24829 4.7788 6.39254 4.83855C6.5368 4.89831 6.66788 4.98589 6.77828 5.0963L19 17.3204L31.2218 5.0963C31.3322 4.98589 31.4632 4.89831 31.6075 4.83855C31.7518 4.7788 31.9064 4.74805 32.0625 4.74805C32.2187 4.74805 32.3733 4.7788 32.5175 4.83855C32.6618 4.89831 32.7929 4.98589 32.9033 5.0963C33.0137 5.20671 33.1013 5.33778 33.161 5.48204C33.2208 5.62629 33.2515 5.7809 33.2515 5.93705C33.2515 6.09319 33.2208 6.2478 33.161 6.39206C33.1013 6.53631 33.0137 6.66739 32.9033 6.7778L20.6791 18.9995L32.9033 31.2213C33.0137 31.3317 33.1013 31.4628 33.161 31.607C33.2208 31.7513 33.2515 31.9059 33.2515 32.062C33.2515 32.2182 33.2208 32.3728 33.161 32.517C33.1013 32.6613 33.0137 32.7924 32.9033 32.9028C32.7929 33.0132 32.6618 33.1008 32.5175 33.1605C32.3733 33.2203 32.2187 33.251 32.0625 33.251C31.9064 33.251 31.7518 33.2203 31.6075 33.1605C31.4632 33.1008 31.3322 33.0132 31.2218 32.9028L19 20.6787L6.77828 32.9028C6.66788 33.0132 6.5368 33.1008 6.39254 33.1605C6.24829 33.2203 6.09368 33.251 5.93753 33.251C5.78139 33.251 5.62678 33.2203 5.48252 33.1605C5.33827 33.1008 5.20719 33.0132 5.09678 32.9028C4.98638 32.7924 4.8988 32.6613 4.83904 32.517C4.77929 32.3728 4.74854 32.2182 4.74854 32.062C4.74854 31.9059 4.77929 31.7513 4.83904 31.607C4.8988 31.4628 4.98638 31.3317 5.09678 31.2213L17.3209 18.9995L5.09678 6.7778Z" fill="#FF0000"/>
</svg>
